<svg xmlns="http://www.w3.org/2000/svg" width="233.424" height="197.229"><g data-name="グループ 668"><g data-name="グループ 667"><g data-name="グループ 653"><g data-name="グループ 652"><g data-name="グループ 644"><path data-name="パス 5830" d="M33.835 175.526L22.69 183.25l-8.439-12.546-1.543 1.688.077 10.448-12.533 2.647L0 147.817l12.634-2.667.074 11.391 9.692-16.229 10.712 5.416-9.661 14.942z" fill="#fff"/></g><g data-name="グループ 645"><path data-name="パス 5831" d="M46.641 183.458c-6.321.009-13.848-2.562-13.8-14.844l-.155-18.26 10.837-.768.119 19.857c-.024 5.526 2.378 5.521 3.167 5.519.966 0 3.234 0 3.256-5.527l.083-19.417 10.8-1.01-.079 18.651c-.034 10.531-5.089 15.785-14.228 15.799z" fill="#fff"/></g><g data-name="グループ 646"><path data-name="パス 5832" d="M92.079 175.443l-10.134 5.553-.983-2.4a35.132 35.132 0 01-2.216-7.448c-.744-3.675-1.707-3.469-3.161-3.155l-.031.007-.016 12.581-10.89 2.345.045-34.427 1.256-.464a74.386 74.386 0 019.666-2.768c10.119-2.178 15.244.322 15.234 7.434a12.392 12.392 0 01-4.5 9.086c1.775 1.156 2.58 3.224 3.084 5.055.192.693.382 1.42.574 2.146a41.5 41.5 0 001.868 6.06zm-16.514-15.667l.572-.122c2.361-.507 3.772-1.992 3.776-3.972 0-.743 0-3-3.271-2.294-.433.1-.786.178-1.067.258z" fill="#fff"/></g><g data-name="グループ 647"><path data-name="パス 5833" d="M107.235 182.621c-8.81 1.931-14.839-3.98-15-14.714-.162-10.639 5.969-19.44 14.912-21.4 10.116-2.224 14.779 5.609 14.913 14.353.175 11.547-5.372 19.683-14.825 21.761zm-.166-27.225c-3.04.667-4.329 5.536-4.26 10.063.032 3.821.9 6.662 2.392 7.805a2.46 2.46 0 002.149.452c3.153-.69 4.2-5.767 4.13-10.285-.073-4.468-1.462-8.684-4.414-8.035z" fill="#fff"/></g><g data-name="グループ 648"><path data-name="パス 5834" d="M146.435 146.54l-2.111 9.115a21.487 21.487 0 00-3.877-.33 18.9 18.9 0 00-4.942.609c-1.6.483-2.566 1.37-2.47 2.26.086.8.773 1.177 4.461 1.717 5.3.723 8.118 3.245 8.6 7.7.7 6.466-3.835 12.155-11.562 14.5a23.755 23.755 0 01-8.275.921l-2.947-.058 1.605-8.973 2.895.091a14.173 14.173 0 006.089-.39c1.362-.4 2.947-1.205 2.791-2.637-.1-.919-.75-1.469-4.036-1.926-6.9-1.02-8.714-4.616-9.024-7.457-.674-6.2 3.776-11.626 11.008-14.048a29.954 29.954 0 017.975-1.4 14.281 14.281 0 013.82.306z" fill="#fff"/></g><g data-name="グループ 649"><path data-name="パス 5835" d="M172.591 179.256l-10.185 1.176-.465-4.836-6.637.812-1.521 5.023-10.056 1.165 12.433-35.975 11.142-1.289zm-14.936-11.1l3.558-.368-.719-7.451c-.006-.059-.072-1.37-.079-1.431-.016.056-.032-.007-.048.05z" fill="#fff"/></g><g data-name="グループ 650"><path data-name="パス 5836" d="M233.424 179.256l-10.189 1.176-.467-4.836-6.635.812-1.522 5.023-10.053 1.165 12.431-35.975 11.143-1.289zm-14.937-11.1l3.557-.368-.721-7.451c-.005-.059-.071-1.37-.077-1.431-.016.056-.033-.007-.05.05z" fill="#fff"/></g><g data-name="グループ 651"><path data-name="パス 5837" d="M202.184 179.523l-9.78 1.608-1.645-12.537c-.053-.428-.106-.866-.158-1.311q-.172.74-.354 1.477l-3.252 13.256-9.687 1.588-5.184-33.91 10.349-1.7 1.243 13.479c.066.736.129 1.484.19 2.234.184-.82.367-1.649.55-2.482l3.157-14.073 9.106-1.495 1.579 13.558c.046.405.092.8.133 1.2l.289-1.492 2.725-14.037 9.917-1.63z" fill="#fff"/></g></g></g><g data-name="グループ 655"><g data-name="グループ 654" fill="#fff"><path data-name="パス 5838" d="M43.811 140.104a10.706 10.706 0 01-3.008.446 5.607 5.607 0 01-3.721-1.1 4.337 4.337 0 01-1.428-3.394c0-3.028 2.377-4.645 5.41-4.645a7.073 7.073 0 012.472.37l-.425 1.422a5.33 5.33 0 00-2.02-.326c-1.88 0-3.307.977-3.307 3.139a2.854 2.854 0 003.048 3.119 3.311 3.311 0 001.043-.124v-2.19h-1.526v-1.361h3.462z"/><path data-name="パス 5839" d="M46.177 131.507h2.032v8.951h-2.032z"/><path data-name="パス 5840" d="M58.51 140.458h-2.034l-2.264-3.7a28.016 28.016 0 01-1.619-3h-.058c.081 1.106.122 2.363.122 3.955v2.75h-1.841v-8.951h2.2l2.222 3.631a26.388 26.388 0 011.579 2.921h.029a35.683 35.683 0 01-.18-3.865v-2.687h1.842z"/><path data-name="パス 5841" d="M67.043 132.576l-4.533 6.378v.045h4.778v1.458h-7.4v-.967l4.628-6.492v-.049h-4.215v-1.443h6.744z"/><path data-name="パス 5842" d="M75.175 140.458h-2.129l-.758-2.364H69.46l-.726 2.364h-2.06l2.992-8.951h2.556zm-3.174-3.669l-.633-2.033c-.164-.562-.343-1.283-.48-1.83h-.042c-.136.559-.314 1.292-.465 1.819l-.632 2.044z"/></g></g><g data-name="グループ 657"><g data-name="グループ 656" fill="#fff"><path data-name="パス 5843" d="M105.945 191.534a3.428 3.428 0 00-1.426-.3c-.816 0-1.177.378-1.177.763 0 .5.4.718 1.372 1.1 1.286.5 1.859 1.133 1.859 2.039 0 1.2-1.055 2.081-2.92 2.081a4.862 4.862 0 01-1.967-.384l.3-1.115a4.037 4.037 0 001.727.385c.858 0 1.306-.348 1.306-.861 0-.491-.386-.789-1.274-1.12-1.207-.448-1.958-1.1-1.958-1.993 0-1.13 1.031-2 2.76-2a4.455 4.455 0 011.722.314z"/><path data-name="パス 5844" d="M107.954 190.232h1.541v6.9h-1.541z"/><path data-name="パス 5845" d="M117.311 197.132h-1.54l-1.719-2.853a23.014 23.014 0 01-1.233-2.313h-.04c.063.851.093 1.819.093 3.046v2.12h-1.4v-6.9h1.671l1.687 2.8a20.627 20.627 0 011.2 2.252h.02a28.7 28.7 0 01-.136-2.979v-2.072h1.4z"/><path data-name="パス 5846" d="M124.208 196.96a5.167 5.167 0 01-1.77.261c-2.408 0-3.741-1.407-3.741-3.454 0-2.416 1.8-3.634 3.927-3.634a4.324 4.324 0 011.657.26l-.3 1.072a3.67 3.67 0 00-1.282-.22 2.236 2.236 0 00-2.387 2.446 2.186 2.186 0 002.378 2.4 4.194 4.194 0 001.3-.2z"/><path data-name="パス 5847" d="M130.023 197.132h-4.481v-6.9h4.314v1.113h-2.772v1.667h2.616v1.088h-2.616v1.919h2.939z"/><path data-name="パス 5848" d="M137.097 197.132v-5.6h-.021l-1.358.607-.332-.95 1.918-.842h1.294v6.783z"/><path data-name="パス 5849" d="M143.868 194.176a2.222 2.222 0 01-3.658-1.534 2.467 2.467 0 012.626-2.405 2.554 2.554 0 012.6 2.861c0 2.352-1.417 4.245-4.583 4.12v-1.042a4.606 4.606 0 00.76-.027 2.419 2.419 0 002.279-1.963zm-2.128-1.653c0 .8.439 1.286 1.065 1.286a1.178 1.178 0 00.992-.511.949.949 0 00.08-.494c0-.907-.353-1.625-1.091-1.625-.629.003-1.046.576-1.046 1.347z"/><path data-name="パス 5850" d="M146.586 193.757c0-2.063.884-3.517 2.658-3.517 1.853 0 2.572 1.577 2.572 3.466 0 2.241-.968 3.523-2.624 3.523-1.833 0-2.606-1.578-2.606-3.472zm2.63 2.422c.7 0 1.058-.861 1.058-2.449 0-1.532-.322-2.439-1.051-2.439-.667 0-1.093.825-1.093 2.439s.385 2.449 1.071 2.449z"/><path data-name="パス 5851" d="M154.556 197.132v-5.6h-.021l-1.357.607-.33-.95 1.914-.842h1.294v6.783z"/><path data-name="パス 5852" d="M169.01 196.86a8.067 8.067 0 01-2.281.345 4.193 4.193 0 01-2.823-.844 3.365 3.365 0 01-1.085-2.623c0-2.332 1.8-3.581 4.106-3.581a5.3 5.3 0 011.874.29l-.321 1.092a4.064 4.064 0 00-1.533-.248 2.261 2.261 0 00-2.51 2.424 2.18 2.18 0 002.311 2.4 2.473 2.473 0 00.792-.1v-1.689h-1.157v-1.05h2.627z"/><path data-name="パス 5853" d="M170.803 190.232h1.538v6.9h-1.538z"/><path data-name="パス 5854" d="M180.158 197.132h-1.541l-1.718-2.853a22.214 22.214 0 01-1.232-2.313h-.041c.065.851.093 1.819.093 3.046v2.12h-1.4v-6.9h1.664l1.69 2.8a20.632 20.632 0 011.2 2.252h.02a28.763 28.763 0 01-.133-2.979v-2.072h1.4z"/><path data-name="パス 5855" d="M186.627 191.058l-3.437 4.916v.035h3.468v1.123H181.2v-.745l3.509-5.007v-.035h-3.2v-1.113h5.117z"/><path data-name="パス 5856" d="M193.627 197.132h-1.612l-.574-1.824h-2.148l-.55 1.824h-1.563l2.273-6.9h1.939zm-2.4-2.829l-.48-1.569c-.126-.43-.262-.986-.365-1.407h-.032c-.1.428-.241.994-.354 1.4l-.48 1.577z"/></g></g><g data-name="グループ 659"><g data-name="グループ 658"><path data-name="パス 5857" d="M60.207 85.109q-.316 0-.607-.01c-16.947-.609-25.143-9.532-25.749-18.1a24.464 24.464 0 018.029-20.058 39.765 39.765 0 0114.13-8.23c-2.059-8.379 1.211-15.836 4.463-20.751A43.061 43.061 0 0178.21 2.895c8.359-3.688 19.835-3.863 28.556-.437 5.865 2.3 10.052 6.043 12.109 10.818 1.176 2.722 2.117 9.133-.906 12.332a.578.578 0 01-.84-.794c2.621-2.773 1.722-8.679.685-11.08-1.933-4.486-5.9-8.013-11.47-10.2-8.453-3.319-19.571-3.151-27.668.42-11.649 5.148-25.058 19.7-21.563 34.389a45.73 45.73 0 0119.549-1.974c8.051 1.059 15.926 4.836 23.086 9.116a82.186 82.186 0 0013.639-9.858c5.336-4.94 32.965-29.642 52.814-30.713 9.264-.5 17.944 1.583 24.444 5.878 7.354 4.858 11.783 12.374 12.809 21.733.889 8.117-2.255 17.08-8.626 24.59a41.916 41.916 0 01-29.41 14.936c-9.116.5-23.848-.291-46.426-12.855-2.694-1.5-5.856-3.619-9.2-5.862-3.127-2.1-6.508-4.363-10.067-6.515-6.143 3.531-12.439 6.208-16.8 6.606-13.78 1.244-23.138-3.3-26.363-12.817q-.135-.4-.254-.8A37.711 37.711 0 0042.67 47.78a23.342 23.342 0 00-7.668 19.134c.569 8.057 8.408 16.447 24.637 17.032 5.359.183 18.17-2.637 18.592-9.007a.578.578 0 111.153.077c-.269 4.056-4.458 6.526-7.925 7.883a33.381 33.381 0 01-11.252 2.21zm40.651-38.958c3.38 2.065 6.592 4.218 9.576 6.218 3.325 2.23 6.467 4.336 9.12 5.812 22.315 12.417 36.824 13.2 45.8 12.711a40.752 40.752 0 0028.591-14.53c6.167-7.269 9.214-15.913 8.359-23.716-1.434-13.09-11.739-27.911-36.041-26.583-19.454 1.049-46.807 25.513-52.093 30.407a82.417 82.417 0 01-13.312 9.681zm-43.45-6.707c.078.264.161.525.25.788 3.038 8.959 11.971 13.237 25.164 12.037 4.092-.373 9.966-2.837 15.777-6.127-6.9-4.079-14.442-7.627-22.088-8.632a46.014 46.014 0 00-19.103 1.934z" fill="#fff"/></g></g><g data-name="グループ 661"><g data-name="グループ 660"><path data-name="パス 5858" d="M107.162 126.892c-3.709 0-7-2.263-9.816-6.755-2.144-3.419-2.763-7.7-2.516-12.024-4.9-1.4-8.7-3.9-10.468-7.013q-.257-.45-.49-.9c-6.138-1.069-13.514-2.847-17.388-6.427-6.633-6.125-8.2-14.206-4.006-20.588 2.515-3.813 12.075-8.274 22.781-1.322a14.214 14.214 0 013.319 2.994 39.031 39.031 0 017.817-6.261 31.017 31.017 0 01-3.58-3.765 56.816 56.816 0 01-28.206.333c-19.058-4.458-24.456-18.62-23.435-27.052a19.7 19.7 0 018.711-13.961c7.365-5.04 17.89-6.163 29.636-3.159 4.927 1.257 12.166 5.245 19.637 9.9a18.956 18.956 0 013.231-.416c6.823-.308 14.2 2.82 21.346 6.524 14.229-11.241 28.077-20.661 41.2-21.737 11.714-.95 18.443 2.783 22.026 6.086a18.62 18.62 0 016.126 13.583c0 15.308-15.724 25.718-26.993 26.441-17.266 1.123-28.257-4.911-37.093-9.756l-1.5-.819c-1.093-.595-2.549-1.5-4.27-2.614l-.679.507-.181.137c-6.713 5.036-16.106 12.082-28.34 15.663a29.813 29.813 0 003.411 3.484 37.206 37.206 0 0114.854-5 13.1 13.1 0 019.991 3.042 5.738 5.738 0 012.02 4.223 5.225 5.225 0 01-2.031 3.824 11.26 11.26 0 01-8.456 2.273 32.26 32.26 0 01-16.51-6.96 37.69 37.69 0 00-8.034 6.415 16.168 16.168 0 012.793 8.954c-.017 2.769-.864 4.888-2.326 5.81a.577.577 0 11-.617-.976c1.089-.688 1.774-2.542 1.788-4.84a14.979 14.979 0 00-2.435-8.066 27.087 27.087 0 00-3.524 5.092 18.553 18.553 0 00-.309 17.394c1.56.264 3.03.484 4.322.677 1.864.278 3.336.5 4.306.728q1.375.325 2.61.657a38.857 38.857 0 015.016-12.24c4.956-6.87 13.451-11.73 20.659-11.818 3.694-.028 6.618 1.181 8.411 3.544 4.66 6.142-.551 15.486-7.783 22.023a25.711 25.711 0 01-11.671 5.847 17.8 17.8 0 011.546 2.219 13.4 13.4 0 011.4 11.833c-.819 2.07-2.147 3.49-3.644 3.9a10.151 10.151 0 01-2.656.362zm-11.227-18.488c-.194 4.012.41 7.96 2.391 11.119 3.214 5.13 6.874 7.053 11.193 5.885a5.036 5.036 0 002.872-3.206 12.246 12.246 0 00-1.313-10.8 14.836 14.836 0 00-1.883-2.561 32.624 32.624 0 01-10.829.053q-1.251-.202-2.431-.49zm.08-1.174c.819.207 1.666.382 2.535.521a31.612 31.612 0 009.585.091c-1.991-1.668-5.3-3.458-11.428-5.2a37.69 37.69 0 00-.693 4.588zm.948-5.713c7.122 2.015 10.618 4.133 12.632 6.073a24.73 24.73 0 0011.815-5.719c9.494-8.581 10.678-16.462 7.639-20.466-1.563-2.06-4.138-3.119-7.477-3.088-6.865.083-14.981 4.746-19.736 11.339a37.744 37.744 0 00-4.874 11.861zm-11.646-1.077l.05.088c1.568 2.756 5.083 5.071 9.554 6.4a39.368 39.368 0 01.707-4.582q-1.239-.332-2.621-.661c-.923-.219-2.447-.446-4.211-.709a255.291 255.291 0 01-3.48-.536zM73.783 69.355c-5.077 0-8.932 2.331-10.339 4.463-4.7 7.149-.88 14.759 3.825 19.1 3.492 3.229 10.176 4.939 15.988 5.994a19.605 19.605 0 01.675-17.689 28.154 28.154 0 013.856-5.511 13.091 13.091 0 00-3.158-2.884 19.842 19.842 0 00-10.848-3.473zm24.6-.6a31.205 31.205 0 0015.593 6.437 10.046 10.046 0 007.554-2.007 4.185 4.185 0 001.625-2.974 4.618 4.618 0 00-1.659-3.353 12.126 12.126 0 00-9.1-2.731 35.817 35.817 0 00-14.018 4.624zM67.166 20.498c-6.46 0-12.158 1.552-16.623 4.607a18.556 18.556 0 00-8.216 13.147c-.972 8.019 4.232 21.5 22.551 25.788a55.857 55.857 0 0027.228-.131l-.3-.414a31.03 31.03 0 01-2.721-4.569 45.21 45.21 0 01-21.16.492c-7.885-1.744-18.739-9.424-18.18-21.04a11.655 11.655 0 013.926-7.547 11 11 0 018.469-2.494c2.99.286 7.168 2.172 7.237 4.971a.578.578 0 01-.564.591.584.584 0 01-.591-.564c-.046-1.868-3.307-3.572-6.193-3.847a9.739 9.739 0 00-7.6 2.218 10.568 10.568 0 00-3.528 6.728c-.317 6.588 4.833 17.1 17.275 19.856a44.051 44.051 0 0020.416-.436c-2.053-4.671-2.856-9.619-2.081-13.647a16.706 16.706 0 0111.128-12.905c-7.054-4.354-13.793-8.015-18.394-9.189a48.939 48.939 0 00-12.084-1.619zm23.051 38.124a29.981 29.981 0 002.524 4.2c.181.251.369.5.567.763 12.022-3.41 21.276-10.356 28.372-15.68l.182-.136.342-.257a520.65 520.65 0 01-5.3-3.541c-5.325 4.25-14.813 11.328-26.692 14.647zm34.008-11.174c1.537.992 2.842 1.795 3.832 2.334l1.5.822c8.7 4.774 19.543 10.715 36.462 9.617 16.051-1.032 25.91-15.425 25.912-25.289a17.462 17.462 0 00-5.753-12.733c-3.414-3.146-9.857-6.707-21.149-5.783-12.693 1.04-26.23 10.188-40.168 21.171q1.247.657 2.48 1.328a68.714 68.714 0 004.042 2c9.871-6.787 22.085-14.141 30.478-15.6 6.813-1.2 18.875-.888 20.847 7.818a10.722 10.722 0 01-2.246 8.5c-2.026 2.722-7.093 7.4-18.267 8.141-8.733.581-21.863-3.589-30.678-7.528a251.49 251.49 0 00-7.297 5.198zM98.951 32.12c-6.836 1.676-10.32 7.2-11.311 12.306-.742 3.857.059 8.627 2.075 13.131 11.555-3.18 20.856-10.022 26.188-14.265l-.6-.408c-4.977-3.36-10.73-7.248-16.357-10.768zm33.685 9.353c8.661 3.8 21.146 7.688 29.483 7.142 10.712-.713 15.51-5.117 17.417-7.678a9.571 9.571 0 002.046-7.551c-2.23-9.843-18.817-7.061-19.522-6.937-8.075 1.402-20.133 8.687-29.425 15.02zm-14.787 1.738a469.239 469.239 0 005.341 3.564c2.1-1.56 4.505-3.3 7.092-5.1a65.845 65.845 0 01-3.49-1.745 217.629 217.629 0 00-2.924-1.558q-2.479 1.964-4.975 3.994l-.417.337zm-17.238-11.41c5.309 3.351 10.667 6.971 15.335 10.125l.9.608q.477-.384.9-.728l.417-.339q2.295-1.858 4.578-3.677c-6.7-3.43-13.92-6.432-20.3-6.16q-.949.039-1.835.167z" fill="#fff"/></g></g><g data-name="グループ 663"><g data-name="グループ 662"><path data-name="パス 5859" d="M126.366 142.067a4.539 4.539 0 01-.582-.034c-3.917-.518-6.326-3.274-7.723-6.185a8.693 8.693 0 01-3.585.935 5.053 5.053 0 01-4.278-2.247c-2.508-3.292-2.935-9.035-1.086-14.629 1.5-4.535 5.747-9.986 13.308-14.362l-.346-1.889c-1.253-6.832-2.159-11.768-1.582-16.493.714-5.846 3.232-10.354 7.282-13.036a15.875 15.875 0 0112.415-2.2c3.22.92 13.48 5.041 10.288 19.4a20.539 20.539 0 01-2.721 6.27c13.924-3.444 38.766-12.968 38.193-36.939-.088-3.877-5.841-19.551-21.157-20.981-6.231-.571-20.375 2.68-24.853 12.8-1.538 3.463-3.211 9.748.269 11.347a.578.578 0 01-.483 1.05c-5.293-2.432-1.314-11.8-.843-12.866 2.706-6.115 8.371-9.426 12.647-11.126a32.153 32.153 0 0113.37-2.357c16.073 1.5 22.113 18.019 22.2 22.105.611 25.516-26.375 35.13-40.3 38.381-2.631 3.687-7.06 8.071-14.494 12.05a42.438 42.438 0 00-7.122 4.7 37.608 37.608 0 01-.709 9.482c-.463 2.494-1.811 7.467-5.42 10 1.259 2.658 3.413 5.188 6.871 5.645a4.491 4.491 0 003.132-.815 1.35 1.35 0 00.473-1.1.577.577 0 01.555-.6.566.566 0 01.6.554 2.506 2.506 0 01-.849 2 5.419 5.419 0 01-3.47 1.14zm-3.729-35.323c-7.054 4.167-11.023 9.269-12.428 13.525-2.1 6.371-.827 11.289.908 13.566a3.948 3.948 0 003.3 1.794 7.49 7.49 0 003.173-.853 15.594 15.594 0 01-1.2-5.925c.373-5.009 2.921-9.558 7.6-13.588-.145-1.744-.424-3.286-.71-4.863-.082-.454-.165-.912-.246-1.379q-.199-1.173-.399-2.277zm1.442 9.99c-4.01 3.672-6.2 7.755-6.53 12.2a14.206 14.206 0 001.044 5.2c3.13-2.342 4.332-6.839 4.753-9.106a37.943 37.943 0 00.733-8.294zm-.378-10.6q.234 1.3.476 2.688c.08.465.163.921.245 1.371.248 1.37.491 2.713.65 4.179a44.884 44.884 0 016.7-4.324 41.36 41.36 0 0013.315-10.645 87.949 87.949 0 01-3.241.631 58.064 58.064 0 00-18.145 6.101zm12.971-33.5a15.173 15.173 0 00-8.26 2.46c-3.759 2.49-6.1 6.713-6.773 12.214-.556 4.549.337 9.413 1.572 16.144l.275 1.5a59.35 59.35 0 0118.158-6.051 90.03 90.03 0 004.482-.907 20.255 20.255 0 003.223-6.909c.752-3.381 2.29-14.674-9.478-18.039a11.745 11.745 0 00-3.199-.416z" fill="#fff"/></g></g><g data-name="グループ 665"><g data-name="グループ 664"><path data-name="パス 5860" d="M132.688 135.661a5.76 5.76 0 115.71-5.758 5.738 5.738 0 01-5.71 5.758zm0-10.662a4.9 4.9 0 104.853 4.9 4.881 4.881 0 00-4.853-4.9z" fill="#fff"/></g></g><g data-name="グループ 666"><path data-name="パス 5861" d="M132.686 133.59a3.686 3.686 0 113.3-5.279l-.775.368a2.836 2.836 0 10.161 2.015l.824.238a3.676 3.676 0 01-3.51 2.658z" fill="#fff"/></g></g></g></svg>