<svg xmlns="http://www.w3.org/2000/svg" width="134.445" height="37.906"><g data-name="グループ 586"><g data-name="グループ 581"><g data-name="グループ 580"><g data-name="グループ 572"><path data-name="パス 6493" d="M19.487 25.406l-6.419 4.45-4.86-7.227-.889.972.045 6.018-7.219 1.525L0 9.444l7.277-1.536.042 6.562 5.582-9.348 6.17 3.119-5.564 8.606z" fill="#fff"/></g><g data-name="グループ 573"><path data-name="パス 6494" d="M26.864 29.978c-3.641 0-7.977-1.475-7.947-8.549l-.09-10.518 6.242-.442.068 11.437c-.013 3.184 1.37 3.181 1.824 3.179.557 0 1.863 0 1.876-3.183l.048-11.184 6.222-.582-.045 10.743c-.024 6.062-2.935 9.088-8.198 9.099z" fill="#fff"/></g><g data-name="グループ 574"><path data-name="パス 6495" d="M53.035 25.359l-5.837 3.2-.567-1.38a20.289 20.289 0 01-1.276-4.29c-.428-2.116-.983-2-1.82-1.817h-.018l-.01 7.246-6.272 1.352.026-19.829.724-.268a42.844 42.844 0 015.567-1.594c5.828-1.254 8.78.186 8.774 4.281a7.137 7.137 0 01-2.59 5.233 4.843 4.843 0 011.776 2.911c.111.4.22.818.331 1.236a23.906 23.906 0 001.076 3.491zm-9.512-9.021l.329-.07a2.4 2.4 0 002.176-2.288c0-.427 0-1.726-1.885-1.321-.249.057-.452.1-.614.149z" fill="#fff"/></g><g data-name="グループ 575"><path data-name="パス 6496" d="M61.762 29.493c-5.074 1.112-8.547-2.292-8.642-8.475-.093-6.128 3.438-11.2 8.589-12.327 5.826-1.281 8.512 3.231 8.59 8.268.102 6.651-3.09 11.337-8.537 12.534zm-.1-15.68c-1.751.384-2.494 3.188-2.454 5.8.019 2.2.52 3.836 1.378 4.5a1.412 1.412 0 001.238.26c1.816-.4 2.418-3.32 2.378-5.924-.035-2.582-.835-5.011-2.535-4.636z" fill="#fff"/></g><g data-name="グループ 576"><path data-name="パス 6497" d="M84.342 8.712l-1.216 5.249a12.426 12.426 0 00-2.233-.19 10.9 10.9 0 00-2.846.351c-.92.278-1.478.79-1.423 1.3.049.46.445.678 2.57.988 3.052.416 4.675 1.869 4.954 4.436.4 3.725-2.209 7-6.66 8.352a13.682 13.682 0 01-4.766.531l-1.7-.034.924-5.168 1.668.053a8.169 8.169 0 003.507-.225c.784-.229 1.7-.7 1.607-1.519-.057-.53-.432-.847-2.324-1.109-3.975-.588-5.019-2.659-5.2-4.295-.388-3.573 2.175-6.7 6.341-8.092a17.236 17.236 0 014.593-.81 8.178 8.178 0 012.204.182z" fill="#fff"/></g><g data-name="グループ 577"><path data-name="パス 6498" d="M99.407 27.555l-5.866.678-.268-2.786-3.823.468-.876 2.894-5.792.671 7.161-20.721 6.418-.742zm-8.6-6.4l2.049-.213-.414-4.291c0-.034-.041-.789-.045-.824-.01.032-.018 0-.028.028z" fill="#fff"/></g><g data-name="グループ 578"><path data-name="パス 6499" d="M134.445 27.555l-5.868.678-.269-2.786-3.822.468-.876 2.894-5.791.671 7.16-20.721 6.418-.742zm-8.6-6.4l2.048-.213-.415-4.291c0-.034-.041-.789-.044-.824-.01.032-.019 0-.029.028z" fill="#fff"/></g><g data-name="グループ 579"><path data-name="パス 6500" d="M116.451 27.709l-5.632.926-.948-7.222c-.031-.245-.061-.5-.091-.755l-.2.851-1.873 7.636-5.579.914-2.986-19.531 5.961-.978.716 7.764c.038.424.074.854.109 1.287.106-.473.211-.95.317-1.43l1.818-8.106 5.245-.861.909 7.81c.027.233.054.462.077.689.054-.28.109-.566.167-.858l1.569-8.085 5.712-.939z" fill="#fff"/></g></g></g><g data-name="グループ 583"><g data-name="グループ 582" fill="#fff"><path data-name="パス 6501" d="M25.234 5.005a6.221 6.221 0 01-1.733.256 3.23 3.23 0 01-2.143-.631 2.5 2.5 0 01-.823-1.954C20.535.932 21.904 0 23.652 0a4.088 4.088 0 011.423.213l-.245.818a3.089 3.089 0 00-1.163-.187 1.7 1.7 0 00-1.9 1.808 1.644 1.644 0 001.756 1.8 1.893 1.893 0 00.6-.071V3.119h-.88v-.784h2z"/><path data-name="パス 6502" d="M26.597.053h1.17v5.155h-1.17z"/><path data-name="パス 6503" d="M33.7 5.208h-1.172l-1.3-2.133a16.166 16.166 0 01-.932-1.729h-.032c.047.637.07 1.361.07 2.278v1.583h-1.06V.052h1.267l1.279 2.092a15.316 15.316 0 01.91 1.682h.017a20.271 20.271 0 01-.1-2.226V.052h1.061z"/><path data-name="パス 6504" d="M38.614.67l-2.61 3.673v.025h2.752v.84h-4.264v-.557L37.158.912V.884H34.73V.053h3.884z"/><path data-name="パス 6505" d="M43.298 5.208h-1.221l-.436-1.361h-1.634l-.419 1.361h-1.186L40.125.053h1.472zM41.47 3.095l-.364-1.171c-.1-.323-.2-.739-.277-1.055h-.024c-.078.323-.181.745-.268 1.049l-.364 1.177z"/></g></g><g data-name="グループ 585"><g data-name="グループ 584" fill="#fff"><path data-name="パス 6506" d="M44.35 34.627a1.963 1.963 0 00-.821-.174c-.47 0-.678.219-.678.44 0 .286.228.413.79.635.741.287 1.071.653 1.071 1.175 0 .692-.608 1.2-1.682 1.2a2.8 2.8 0 01-1.133-.222l.173-.643a2.317 2.317 0 00.995.223c.494 0 .752-.2.752-.5s-.222-.454-.733-.646c-.7-.258-1.128-.631-1.128-1.147 0-.651.594-1.152 1.589-1.152a2.529 2.529 0 01.992.182z"/><path data-name="パス 6507" d="M45.507 33.878h.888v3.974h-.888z"/><path data-name="パス 6508" d="M50.897 37.851h-.888l-.99-1.643a13.478 13.478 0 01-.71-1.333h-.023c.037.49.054 1.048.054 1.755v1.221h-.806v-3.973h.962l.972 1.611a12.037 12.037 0 01.691 1.3h.011a16.514 16.514 0 01-.078-1.716v-1.195h.805z"/><path data-name="パス 6509" d="M54.869 37.752a2.978 2.978 0 01-1.019.15 1.922 1.922 0 01-2.155-1.99 2.055 2.055 0 012.262-2.093 2.483 2.483 0 01.954.149l-.174.618a2.093 2.093 0 00-.738-.127 1.288 1.288 0 00-1.375 1.408 1.259 1.259 0 001.369 1.384 2.454 2.454 0 00.75-.113z"/><path data-name="パス 6510" d="M58.218 37.851h-2.581v-3.973h2.485v.641h-1.6v.96h1.506v.627h-1.506v1.105h1.692z"/><path data-name="パス 6511" d="M62.292 37.851v-3.224h-.015l-.781.349-.192-.547 1.1-.485h.745v3.907z"/><path data-name="パス 6512" d="M66.192 36.151a1.28 1.28 0 01-2.106-.884 1.42 1.42 0 011.512-1.385 1.471 1.471 0 011.5 1.646 2.262 2.262 0 01-2.64 2.374v-.6a2.661 2.661 0 00.438-.016 1.391 1.391 0 001.312-1.131zm-1.225-.953c0 .461.253.741.613.741a.676.676 0 00.571-.295.537.537 0 00.046-.284c0-.522-.2-.936-.628-.936-.362 0-.602.33-.602.774z"/><path data-name="パス 6513" d="M67.758 35.907c0-1.187.509-2.024 1.531-2.024 1.067 0 1.481.907 1.481 2 0 1.29-.557 2.028-1.511 2.028-1.056-.004-1.501-.913-1.501-2.004zm1.515 1.4c.405 0 .609-.5.609-1.41 0-.883-.185-1.405-.6-1.405-.384 0-.629.476-.629 1.405s.221 1.41.616 1.41z"/><path data-name="パス 6514" d="M72.348 37.851v-3.224h-.01l-.782.349-.19-.547 1.1-.485h.746v3.907z"/><path data-name="パス 6515" d="M80.677 37.695a4.674 4.674 0 01-1.314.2 2.414 2.414 0 01-1.626-.486 1.935 1.935 0 01-.625-1.51 2.094 2.094 0 012.365-2.062 3.013 3.013 0 011.079.167l-.185.628a2.354 2.354 0 00-.882-.143 1.3 1.3 0 00-1.446 1.4 1.256 1.256 0 001.331 1.383 1.442 1.442 0 00.456-.056v-.974h-.666v-.6h1.513z"/><path data-name="パス 6516" d="M81.706 33.878h.886v3.974h-.886z"/><path data-name="パス 6517" d="M87.095 37.851h-.888l-.989-1.643a12.877 12.877 0 01-.71-1.333h-.024c.037.49.054 1.048.054 1.755v1.221h-.8v-3.973h.958l.974 1.611a12.03 12.03 0 01.69 1.3h.012a16.535 16.535 0 01-.077-1.716v-1.195h.8z"/><path data-name="パス 6518" d="M90.82 34.352l-1.979 2.832v.02h2v.647h-3.144v-.429l2.021-2.885v-.02h-1.841v-.641h2.947z"/><path data-name="パス 6519" d="M94.852 37.851h-.928l-.331-1.051h-1.237l-.317 1.051h-.9l1.309-3.974h1.117zm-1.384-1.629l-.277-.9c-.072-.248-.15-.567-.21-.811h-.018c-.059.247-.139.572-.2.806l-.276.909z"/></g></g></g></svg>