<svg xmlns="http://www.w3.org/2000/svg" width="14.723" height="14.722"><g data-name="グループ 643" transform="translate(-80 -5570.015)"><path data-name="パス 7094" d="M87.361 5581.21a3.834 3.834 0 113.835-3.834 3.838 3.838 0 01-3.835 3.834zm0-6.463a2.629 2.629 0 102.629 2.629 2.631 2.631 0 00-2.629-2.629z"/><circle data-name="楕円形 33" cx=".891" cy=".891" r=".891" transform="translate(90.42 5572.46)"/><path data-name="パス 7095" d="M90.675 5584.737h-6.627a4.053 4.053 0 01-4.048-4.048v-6.626a4.053 4.053 0 014.048-4.048h6.627a4.053 4.053 0 014.048 4.048v6.626a4.053 4.053 0 01-4.048 4.048zm-6.627-13.517a2.845 2.845 0 00-2.842 2.843v6.626a2.845 2.845 0 002.842 2.842h6.627a2.845 2.845 0 002.842-2.842v-6.626a2.845 2.845 0 00-2.842-2.843z"/></g></svg>