<svg xmlns="http://www.w3.org/2000/svg" width="14.722" height="14.723"><g data-name="グループ 587" transform="translate(-884.485 -8978.341)" fill="#fff"><path data-name="パス 6520" d="M891.846 8989.536a3.834 3.834 0 113.835-3.834 3.838 3.838 0 01-3.835 3.834zm0-6.463a2.629 2.629 0 102.629 2.629 2.631 2.631 0 00-2.629-2.629z"/><circle data-name="楕円形 26" cx=".891" cy=".891" r=".891" transform="translate(894.905 8980.787)"/><path data-name="パス 6521" d="M895.159 8993.063h-6.626a4.053 4.053 0 01-4.048-4.049v-6.626a4.053 4.053 0 014.048-4.048h6.626a4.052 4.052 0 014.048 4.048v6.626a4.052 4.052 0 01-4.048 4.049zm-6.626-13.517a2.846 2.846 0 00-2.842 2.842v6.626a2.846 2.846 0 002.842 2.843h6.626a2.846 2.846 0 002.843-2.843v-6.626a2.846 2.846 0 00-2.843-2.842z"/></g></svg>