<svg xmlns="http://www.w3.org/2000/svg" width="80.647" height="68.141"><g data-name="グループ 668"><g data-name="グループ 667"><g data-name="グループ 653"><g data-name="グループ 652"><g data-name="グループ 644"><path data-name="パス 7096" d="M11.69 60.643l-3.85 2.669-2.916-4.335-.533.583.027 3.61-4.331.914L0 51.07l4.366-.922.025 3.936 3.349-5.607 3.7 1.871-3.338 5.162z"/></g><g data-name="グループ 645"><path data-name="パス 7097" d="M16.115 63.384c-2.184 0-4.785-.886-4.767-5.129l-.054-6.309 3.744-.265.041 6.861c-.008 1.909.822 1.907 1.094 1.906.334 0 1.118 0 1.125-1.909l.029-6.709 3.733-.349-.027 6.444c-.012 3.639-1.761 5.454-4.918 5.459z"/></g><g data-name="グループ 646"><path data-name="パス 7098" d="M31.814 60.615l-3.5 1.918-.34-.828a12.179 12.179 0 01-.765-2.573c-.257-1.27-.59-1.2-1.092-1.09h-.011v4.347l-3.763.81.016-11.894.434-.161a25.8 25.8 0 013.339-.956c3.5-.752 5.267.112 5.264 2.569a4.285 4.285 0 01-1.554 3.139 2.9 2.9 0 011.065 1.746c.067.24.132.491.2.742a14.332 14.332 0 00.645 2.093zm-5.706-5.412l.2-.042a1.441 1.441 0 001.3-1.373c0-.256 0-1.035-1.13-.792-.15.033-.272.062-.369.089z"/></g><g data-name="グループ 647"><path data-name="パス 7099" d="M37.049 63.094c-3.044.668-5.127-1.375-5.184-5.083-.056-3.676 2.062-6.716 5.152-7.4 3.495-.768 5.106 1.938 5.152 4.959.062 3.996-1.853 6.807-5.12 7.524zm-.058-9.406c-1.05.231-1.495 1.913-1.472 3.477a3.547 3.547 0 00.827 2.7.852.852 0 00.743.156c1.089-.239 1.45-1.993 1.427-3.554-.025-1.546-.505-3.003-1.525-2.779z"/></g><g data-name="グループ 648"><path data-name="パス 7100" d="M50.593 50.629l-.729 3.149a7.413 7.413 0 00-1.34-.114 6.543 6.543 0 00-1.707.21c-.552.167-.887.474-.854.781.03.276.268.407 1.542.593 1.831.25 2.8 1.121 2.972 2.661.242 2.234-1.325 4.2-3.995 5.01a8.212 8.212 0 01-2.859.318l-1.018-.02.554-3.1 1 .031a4.887 4.887 0 002.1-.135c.471-.137 1.019-.416.965-.911-.035-.317-.26-.507-1.4-.665-2.384-.352-3.01-1.6-3.118-2.577-.232-2.143 1.3-4.016 3.8-4.853a10.351 10.351 0 012.755-.486 4.936 4.936 0 011.332.108z"/></g><g data-name="グループ 649"><path data-name="パス 7101" d="M59.63 61.932l-3.519.406-.161-1.671-2.293.281-.525 1.735-3.474.4 4.3-12.429 3.85-.446zm-5.16-3.836l1.229-.128-.249-2.574c0-.02-.024-.473-.027-.494-.006.019-.011 0-.016.017z"/></g><g data-name="グループ 650"><path data-name="パス 7102" d="M80.647 61.932l-3.519.406-.162-1.671-2.292.281-.526 1.735-3.473.4 4.294-12.429 3.85-.446zm-5.16-3.836l1.229-.128-.249-2.574c0-.02-.025-.473-.027-.494-.006.019-.011 0-.017.017z"/></g><g data-name="グループ 651"><path data-name="パス 7103" d="M69.854 62.024l-3.379.556-.568-4.332c-.019-.148-.037-.3-.055-.453q-.058.256-.122.51l-1.123 4.58-3.347.549-1.791-11.716 3.575-.586.43 4.657.065.772q.1-.426.19-.858l1.091-4.862 3.146-.517.546 4.685.046.413.1-.515.941-4.85 3.426-.563z"/></g></g></g><g data-name="グループ 655"><g data-name="グループ 654"><path data-name="パス 7104" d="M15.137 48.402a3.682 3.682 0 01-1.039.154 1.936 1.936 0 01-1.286-.379 1.5 1.5 0 01-.493-1.172c0-1.046.821-1.6 1.869-1.6a2.446 2.446 0 01.854.128l-.147.491a1.842 1.842 0 00-.7-.112 1.021 1.021 0 00-1.142 1.084.986.986 0 001.053 1.078 1.15 1.15 0 00.36-.043v-.757h-.527v-.47h1.2z"/><path data-name="パス 7105" d="M15.955 45.435h.7v3.092h-.7z"/><path data-name="パス 7106" d="M20.221 48.527h-.7l-.782-1.279a9.789 9.789 0 01-.56-1.037h-.019c.028.382.042.816.042 1.366v.95h-.636v-3.092h.76l.768 1.254a9.278 9.278 0 01.545 1.01h.01a12.4 12.4 0 01-.062-1.336v-.928h.637z"/><path data-name="パス 7107" d="M23.163 45.802l-1.566 2.2v.016h1.651v.5h-2.557v-.334l1.6-2.243v-.017h-1.457v-.5h2.33z"/><path data-name="パス 7108" d="M25.973 48.527h-.736l-.261-.817h-.977l-.251.817h-.712l1.034-3.092h.883zm-1.1-1.267l-.219-.7a16.94 16.94 0 01-.166-.632h-.014c-.047.193-.109.446-.161.628l-.218.707z"/></g></g><g data-name="グループ 657"><g data-name="グループ 656"><path data-name="パス 7109" d="M36.604 66.174a1.192 1.192 0 00-.493-.1c-.282 0-.406.131-.406.264 0 .171.137.248.474.381.444.172.642.392.642.705 0 .415-.364.719-1.009.719a1.683 1.683 0 01-.68-.133l.105-.385a1.389 1.389 0 00.6.133c.3 0 .451-.12.451-.3s-.133-.272-.44-.387c-.417-.154-.676-.378-.676-.688 0-.391.356-.691.953-.691a1.548 1.548 0 01.6.108z"/><path data-name="パス 7110" d="M37.298 65.724h.533v2.384h-.533z"/><path data-name="パス 7111" d="M40.531 68.108h-.532l-.594-.986a7.843 7.843 0 01-.426-.8h-.014c.022.294.032.629.032 1.052v.733h-.483v-2.384h.577l.583.967a7.087 7.087 0 01.414.778h.007a10.12 10.12 0 01-.047-1.029v-.716h.483z"/><path data-name="パス 7112" d="M42.914 68.048a1.778 1.778 0 01-.612.091 1.153 1.153 0 01-1.292-1.194 1.233 1.233 0 011.357-1.255 1.516 1.516 0 01.572.089l-.1.371a1.276 1.276 0 00-.443-.076.773.773 0 00-.825.845.755.755 0 00.822.829 1.474 1.474 0 00.449-.067z"/><path data-name="パス 7113" d="M44.921 68.108h-1.548v-2.384h1.49v.385h-.957v.576h.9v.376h-.9v.662h1.015z"/><path data-name="パス 7114" d="M47.367 68.108v-1.934h-.007l-.469.21-.115-.329.662-.291h.448v2.344z"/><path data-name="パス 7115" d="M49.706 67.088a.767.767 0 01-1.263-.53.852.852 0 01.907-.831.882.882 0 01.9.988 1.357 1.357 0 01-1.584 1.424v-.36a1.576 1.576 0 00.263-.01.834.834 0 00.787-.678zm-.735-.571c0 .276.152.444.368.444a.41.41 0 00.343-.177.338.338 0 00.027-.17c0-.314-.121-.562-.377-.562-.217 0-.361.198-.361.465z"/><path data-name="パス 7116" d="M50.645 66.942c0-.713.306-1.215.919-1.215.64 0 .888.544.888 1.2 0 .774-.334 1.217-.906 1.217-.633-.003-.901-.548-.901-1.202zm.909.837c.243 0 .366-.3.366-.846 0-.53-.112-.843-.363-.843-.231 0-.378.285-.378.843s.133.846.37.846z"/><path data-name="パス 7117" d="M53.399 68.108v-1.934h-.007l-.469.21-.114-.329.662-.291h.447v2.344z"/><path data-name="パス 7118" d="M58.393 68.014a2.807 2.807 0 01-.788.119 1.449 1.449 0 01-.976-.292 1.161 1.161 0 01-.375-.906 1.257 1.257 0 011.419-1.237 1.836 1.836 0 01.647.1l-.11.377a1.416 1.416 0 00-.53-.085.78.78 0 00-.867.837.753.753 0 00.8.83.835.835 0 00.274-.034v-.583h-.4v-.363h.908z"/><path data-name="パス 7119" d="M59.012 65.724h.531v2.384h-.531z"/><path data-name="パス 7120" d="M62.244 68.108h-.532l-.594-.986a7.642 7.642 0 01-.425-.8h-.015c.023.294.033.629.033 1.052v.733h-.483v-2.384h.575l.584.967a7.082 7.082 0 01.414.778h.007a10.143 10.143 0 01-.046-1.029v-.716h.482z"/><path data-name="パス 7121" d="M64.479 66.009l-1.187 1.7v.012h1.2v.388h-1.886v-.258l1.213-1.729v-.012h-1.105v-.385h1.767z"/><path data-name="パス 7122" d="M66.898 68.108h-.557l-.2-.63h-.742l-.189.63h-.541l.786-2.384h.67zm-.831-.977l-.165-.542c-.044-.149-.091-.341-.127-.487h-.011c-.035.148-.083.344-.122.484l-.166.545z"/></g></g><g data-name="グループ 659"><g data-name="グループ 658"><path data-name="パス 7123" d="M20.802 29.402h-.21c-5.855-.21-8.687-3.293-8.9-6.255a8.452 8.452 0 012.774-6.93 13.729 13.729 0 014.882-2.843 9.093 9.093 0 011.542-7.17 14.868 14.868 0 016.131-5.202 13.65 13.65 0 019.866-.151 7.193 7.193 0 014.183 3.737c.406.941.732 3.156-.313 4.261a.2.2 0 01-.29-.275c.906-.958.6-3 .237-3.827a6.812 6.812 0 00-3.963-3.525 13.233 13.233 0 00-9.559.145c-4.025 1.779-8.658 6.806-7.45 11.882a15.779 15.779 0 016.754-.683 21.555 21.555 0 017.976 3.15 28.412 28.412 0 004.712-3.406c1.844-1.707 11.389-10.241 18.247-10.611a14.03 14.03 0 018.446 2.031 9.969 9.969 0 014.425 7.508 11.52 11.52 0 01-2.98 8.5 14.48 14.48 0 01-10.161 5.16c-3.15.172-8.24-.1-16.04-4.441-.931-.518-2.023-1.25-3.18-2.025-1.08-.725-2.248-1.508-3.478-2.251a16.491 16.491 0 01-5.8 2.282c-4.76.43-7.994-1.141-9.108-4.428-.031-.092-.06-.184-.088-.275a13.048 13.048 0 00-4.712 2.754 8.066 8.066 0 00-2.649 6.611c.2 2.783 2.9 5.682 8.512 5.884 1.852.064 6.278-.911 6.424-3.112a.2.2 0 01.212-.185.2.2 0 01.186.212c-.093 1.4-1.54 2.255-2.738 2.724a11.545 11.545 0 01-3.89.754zm14.045-13.46c1.167.713 2.277 1.457 3.308 2.148 1.149.771 2.234 1.5 3.151 2.008 7.71 4.29 12.722 4.562 15.824 4.392a14.085 14.085 0 009.878-5.02 11.122 11.122 0 002.888-8.194c-.5-4.523-4.056-9.643-12.452-9.185-6.721.363-16.172 8.815-18 10.506a28.437 28.437 0 01-4.597 3.348zm-15.012-2.317c.027.091.055.181.086.272 1.05 3.1 4.136 4.573 8.694 4.158a15.671 15.671 0 005.451-2.116 20.881 20.881 0 00-7.631-2.983 15.9 15.9 0 00-6.6.672z"/></g></g><g data-name="グループ 661"><g data-name="グループ 660"><path data-name="パス 7124" d="M37.021 43.84c-1.281 0-2.418-.781-3.391-2.334a7.039 7.039 0 01-.869-4.154 5.925 5.925 0 01-3.617-2.423 6.193 6.193 0 01-.169-.312c-2.121-.369-4.669-.983-6.008-2.22-2.291-2.116-2.834-4.908-1.383-7.113.868-1.317 4.171-2.859 7.87-.457a4.924 4.924 0 011.147 1.034 13.484 13.484 0 012.7-2.163 10.625 10.625 0 01-1.237-1.3 19.639 19.639 0 01-9.745.116c-6.585-1.541-8.45-6.434-8.1-9.347a6.805 6.805 0 013.01-4.823c2.544-1.741 6.18-2.129 10.239-1.091a29.107 29.107 0 016.784 3.419 6.58 6.58 0 011.117-.143c2.357-.107 4.9.974 7.374 2.254 4.916-3.884 9.7-7.138 14.233-7.51 4.047-.329 6.372.961 7.61 2.1a6.435 6.435 0 012.117 4.693c0 5.289-5.433 8.886-9.326 9.136-5.965.387-9.763-1.7-12.816-3.371l-.517-.283a26.003 26.003 0 01-1.475-.9l-.235.175-.063.047a30.6 30.6 0 01-9.791 5.412 10.359 10.359 0 001.179 1.2 12.852 12.852 0 015.131-1.728 4.532 4.532 0 013.452 1.051 1.98 1.98 0 01.7 1.459 1.8 1.8 0 01-.7 1.321 3.89 3.89 0 01-2.922.786 11.152 11.152 0 01-5.7-2.405 13.042 13.042 0 00-2.776 2.216 5.579 5.579 0 01.965 3.094 2.316 2.316 0 01-.8 2.007.2.2 0 11-.213-.337 2.011 2.011 0 00.617-1.672 5.179 5.179 0 00-.841-2.787 9.325 9.325 0 00-1.217 1.76 6.408 6.408 0 00-.107 6.009c.539.091 1.047.167 1.493.234.644.1 1.152.172 1.488.251.316.076.617.151.9.228a13.42 13.42 0 011.733-4.229A9.747 9.747 0 0142 26.657a3.436 3.436 0 012.906 1.224c1.61 2.122-.191 5.35-2.689 7.609a8.872 8.872 0 01-4.032 2.02 6.226 6.226 0 01.534.767 4.63 4.63 0 01.485 4.088 2.094 2.094 0 01-1.259 1.346 3.508 3.508 0 01-.924.129zm-3.879-6.387a6.6 6.6 0 00.827 3.841c1.11 1.773 2.374 2.437 3.867 2.034a1.743 1.743 0 00.992-1.108 4.231 4.231 0 00-.454-3.732 5.184 5.184 0 00-.65-.885 11.258 11.258 0 01-3.742.019q-.429-.07-.837-.169zm.028-.406q.425.108.876.18a10.882 10.882 0 003.311.032 10.564 10.564 0 00-3.948-1.8 13.078 13.078 0 00-.236 1.588zm.327-1.974a10.047 10.047 0 014.365 2.1 8.55 8.55 0 004.082-1.976c3.28-2.965 3.689-5.688 2.639-7.071A3.039 3.039 0 0042 27.059a9.329 9.329 0 00-6.819 3.917 13.084 13.084 0 00-1.681 4.097zm-4.023-.372l.017.031a5.561 5.561 0 003.3 2.211 13.689 13.689 0 01.244-1.583c-.285-.076-.586-.152-.9-.228s-.846-.154-1.455-.245c-.367-.055-.772-.116-1.203-.185zm-3.985-10.739a4.392 4.392 0 00-3.572 1.542c-1.625 2.47-.3 5.1 1.322 6.6 1.206 1.116 3.515 1.707 5.523 2.071a6.777 6.777 0 01.233-6.112 9.7 9.7 0 011.333-1.9 4.512 4.512 0 00-1.091-1 6.857 6.857 0 00-3.745-1.201zm8.5-.209a10.784 10.784 0 005.387 2.224 3.471 3.471 0 002.61-.694 1.442 1.442 0 00.561-1.027 1.593 1.593 0 00-.573-1.159 4.194 4.194 0 00-3.145-.943 12.38 12.38 0 00-4.839 1.599zM23.203 7.08a10.054 10.054 0 00-5.743 1.592 6.412 6.412 0 00-2.838 4.542c-.336 2.771 1.462 7.429 7.791 8.91a19.3 19.3 0 009.407-.045l-.1-.143a10.73 10.73 0 01-.94-1.579 15.624 15.624 0 01-7.31.17c-2.725-.6-6.475-3.256-6.282-7.269a4.026 4.026 0 011.357-2.607 3.8 3.8 0 012.926-.862c1.033.1 2.477.75 2.5 1.717a.2.2 0 01-.195.2.2.2 0 01-.2-.194c-.016-.646-1.142-1.235-2.139-1.33a3.364 3.364 0 00-2.627.767 3.65 3.65 0 00-1.219 2.324 7.23 7.23 0 005.969 6.86 15.214 15.214 0 007.053-.15 8.282 8.282 0 01-.719-4.715 5.772 5.772 0 013.845-4.459 27.491 27.491 0 00-6.355-3.175 16.918 16.918 0 00-4.18-.554zm7.964 13.172a10.459 10.459 0 00.872 1.45c.063.087.128.175.2.264a29.9 29.9 0 009.8-5.417l.063-.047.118-.089c-.553-.363-1.171-.778-1.831-1.224a26.65 26.65 0 01-9.221 5.063zm11.75-3.86c.531.342.982.62 1.324.806l.518.284c3.008 1.649 6.753 3.7 12.6 3.322 5.546-.356 8.952-5.329 8.953-8.737a6.034 6.034 0 00-1.988-4.4c-1.18-1.087-3.406-2.317-7.307-2-4.385.359-9.062 3.52-13.878 7.314q.431.228.857.459c.406.22.877.454 1.4.691 3.41-2.345 7.63-4.886 10.529-5.391 2.354-.413 6.522-.306 7.2 2.7a3.706 3.706 0 01-.776 2.936c-.7.94-2.45 2.556-6.311 2.813-3.018.2-7.554-1.24-10.6-2.6a93.762 93.762 0 00-2.517 1.803zm-8.732-5.3a5.266 5.266 0 00-3.908 4.251 7.9 7.9 0 00.717 4.537 26.058 26.058 0 009.048-4.929l-.209-.14c-1.712-1.156-3.703-2.499-5.647-3.715zm11.638 3.231c2.992 1.311 7.306 2.656 10.186 2.468 3.7-.247 5.359-1.768 6.018-2.653a3.312 3.312 0 00.707-2.609c-.771-3.4-6.5-2.44-6.745-2.4-2.787.493-6.953 3.01-10.168 5.198zm-5.109.6c.669.451 1.293.87 1.845 1.231a98.101 98.101 0 012.451-1.762 25.17 25.17 0 01-1.206-.6c-.331-.179-.668-.36-1.01-.538-.571.452-1.145.914-1.719 1.38l-.144.116zm-5.955-3.943c1.834 1.158 3.685 2.409 5.3 3.5l.311.21.311-.252.144-.117q.794-.642 1.582-1.27c-2.314-1.185-4.809-2.223-7.013-2.129a8.197 8.197 0 00-.634.063z"/></g></g><g data-name="グループ 663"><g data-name="グループ 662"><path data-name="パス 7125" d="M43.66 49.083a1.452 1.452 0 01-.2-.012 3.5 3.5 0 01-2.668-2.136 3.006 3.006 0 01-1.238.323 1.743 1.743 0 01-1.478-.777 5.731 5.731 0 01-.376-5.054 9.773 9.773 0 014.6-4.962l-.119-.652a19.427 19.427 0 01-.547-5.7 6.038 6.038 0 012.516-4.5 5.483 5.483 0 014.289-.758c1.113.318 4.658 1.741 3.555 6.7a7.079 7.079 0 01-.941 2.167c4.811-1.19 13.394-4.481 13.2-12.762-.03-1.34-2.018-6.755-7.309-7.249-2.153-.2-7.04.926-8.587 4.423-.532 1.2-1.11 3.368.093 3.92a.2.2 0 01-.167.363c-1.829-.84-.454-4.078-.291-4.445a7.743 7.743 0 014.369-3.844 11.112 11.112 0 014.619-.815c5.554.519 7.64 6.226 7.672 7.637.211 8.816-9.112 12.138-13.922 13.261a14.226 14.226 0 01-5.008 4.163 14.66 14.66 0 00-2.46 1.623 13 13 0 01-.245 3.275 5.543 5.543 0 01-1.873 3.454 3.138 3.138 0 002.374 1.951 1.552 1.552 0 001.082-.282.468.468 0 00.164-.382.2.2 0 01.192-.207.2.2 0 01.207.191.87.87 0 01-.293.693 1.877 1.877 0 01-1.21.393zm-1.289-12.2a9.285 9.285 0 00-4.294 4.673 5.246 5.246 0 00.314 4.687 1.363 1.363 0 001.141.62 2.581 2.581 0 001.1-.295 5.369 5.369 0 01-.413-2.047 6.844 6.844 0 012.625-4.694c-.05-.6-.147-1.136-.245-1.68a46.405 46.405 0 01-.085-.477l-.143-.791zm.5 3.452a6.326 6.326 0 00-2.256 4.216 4.927 4.927 0 00.361 1.8 5.24 5.24 0 001.642-3.146 13.081 13.081 0 00.251-2.874zm-.13-3.662c.054.3.109.608.164.929.028.16.056.318.085.473.085.473.169.938.224 1.444a15.549 15.549 0 012.314-1.494 14.283 14.283 0 004.6-3.678c-.425.091-.8.163-1.119.218a20.06 20.06 0 00-6.27 2.104zm4.481-11.576a5.242 5.242 0 00-2.854.85 5.648 5.648 0 00-2.34 4.22 19.18 19.18 0 00.543 5.577c.032.169.063.342.1.519a20.526 20.526 0 016.274-2.091c.418-.073.944-.175 1.549-.313a7 7 0 001.113-2.387c.26-1.168.791-5.07-3.275-6.233a4.061 4.061 0 00-1.111-.146z"/></g></g><g data-name="グループ 665"><g data-name="グループ 664"><path data-name="パス 7126" d="M45.844 46.87a1.99 1.99 0 111.972-1.989 1.983 1.983 0 01-1.972 1.989zm0-3.684a1.694 1.694 0 101.676 1.695 1.686 1.686 0 00-1.676-1.695z"/></g></g><g data-name="グループ 666"><path data-name="パス 7127" d="M45.843 46.155a1.274 1.274 0 111.14-1.824l-.268.127a.979.979 0 10.056.7l.284.082a1.27 1.27 0 01-1.212.915z"/></g></g></g></svg>