<svg xmlns="http://www.w3.org/2000/svg" width="190.359" height="160.762"><g data-name="グループ 350"><g data-name="グループ 345"><g data-name="グループ 344"><g data-name="グループ 336"><path data-name="パス 443" d="M27.593 143.072l-9.089 6.3-6.882-10.226-1.258 1.376.063 8.516-10.221 2.157-.206-30.7 10.3-2.174.06 9.285 7.9-13.229 8.736 4.415-7.879 12.179z" fill="#fff"/></g><g data-name="グループ 337"><path data-name="パス 444" d="M38.037 149.538c-5.155.007-11.294-2.088-11.252-12.1l-.127-14.884 8.837-.627.1 16.187c-.02 4.5 1.939 4.5 2.582 4.5.788 0 2.637 0 2.655-4.505l.068-15.827 8.811-.824-.065 15.2c-.035 8.586-4.157 12.868-11.609 12.88z" fill="#fff"/></g><g data-name="グループ 338"><path data-name="パス 445" d="M75.092 143.005l-8.264 4.526-.8-1.953a28.655 28.655 0 01-1.806-6.071c-.607-2.995-1.393-2.828-2.578-2.572l-.025.006-.014 10.255-8.881 1.911.037-28.061 1.025-.379a60.63 60.63 0 017.882-2.255c8.252-1.775 12.432.262 12.424 6.059a10.1 10.1 0 01-3.668 7.406 6.846 6.846 0 012.515 4.12c.157.566.312 1.158.468 1.749a33.8 33.8 0 001.524 4.94zm-13.468-12.767l.467-.1c1.925-.414 3.076-1.624 3.079-3.238 0-.606 0-2.443-2.668-1.87-.353.078-.64.145-.87.211z" fill="#fff"/></g><g data-name="グループ 339"><path data-name="パス 446" d="M87.449 148.855c-7.185 1.574-12.1-3.244-12.236-11.993-.133-8.672 4.868-15.845 12.16-17.446 8.25-1.812 12.053 4.573 12.163 11.7.144 9.414-4.376 16.046-12.087 17.739zm-.135-22.19c-2.48.543-3.531 4.512-3.475 8.2.027 3.114.737 5.43 1.951 6.362a2.009 2.009 0 001.753.368c2.571-.563 3.425-4.7 3.368-8.384-.057-3.639-1.188-7.076-3.597-6.546z" fill="#fff"/></g><g data-name="グループ 340"><path data-name="パス 447" d="M119.423 119.446l-1.722 7.429a17.641 17.641 0 00-3.161-.269 15.47 15.47 0 00-4.03.5c-1.3.394-2.093 1.117-2.015 1.843.07.65.631.958 3.639 1.4 4.322.589 6.619 2.645 7.014 6.277.573 5.27-3.127 9.907-9.429 11.819a19.39 19.39 0 01-6.748.751l-2.4-.048 1.309-7.314 2.361.075a11.575 11.575 0 004.965-.318c1.111-.325 2.4-.983 2.276-2.15-.081-.749-.612-1.2-3.291-1.57-5.628-.831-7.106-3.763-7.36-6.078-.549-5.056 3.08-9.477 8.978-11.45a24.41 24.41 0 016.5-1.146 11.633 11.633 0 013.114.249z" fill="#fff"/></g><g data-name="グループ 341"><path data-name="パス 448" d="M140.75 146.113l-8.306.959-.38-3.942-5.413.662-1.24 4.093-8.2.95 10.139-29.323 9.086-1.051zm-12.181-9.051l2.9-.3-.586-6.073c0-.049-.058-1.117-.064-1.167-.014.046-.026-.006-.04.041z" fill="#fff"/></g><g data-name="グループ 342"><path data-name="パス 449" d="M190.359 146.113l-8.308.959-.381-3.942-5.411.662-1.241 4.093-8.2.95 10.138-29.323 9.087-1.051zm-12.181-9.051l2.9-.3-.587-6.073c-.005-.049-.059-1.117-.063-1.167-.014.046-.027-.006-.041.041z" fill="#fff"/></g><g data-name="グループ 343"><path data-name="パス 450" d="M164.882 146.331l-7.975 1.31-1.341-10.219c-.044-.349-.087-.706-.13-1.068q-.139.6-.288 1.2l-2.652 10.806-7.9 1.294-4.227-27.64 8.439-1.384 1.014 10.987c.054.6.1 1.209.155 1.821q.225-1 .448-2.024l2.575-11.47 7.425-1.219 1.289 11.051c.037.33.075.654.108.976q.114-.6.236-1.216l2.222-11.441 8.087-1.329z" fill="#fff"/></g></g></g><g data-name="グループ 347"><g data-name="グループ 346" fill="#fff"><path data-name="パス 451" d="M35.729 114.2a8.769 8.769 0 01-2.453.363 4.577 4.577 0 01-3.035-.893 3.535 3.535 0 01-1.164-2.766c0-2.468 1.938-3.787 4.412-3.787a5.778 5.778 0 012.015.3l-.346 1.159a4.357 4.357 0 00-1.647-.265 2.411 2.411 0 00-2.7 2.558 2.327 2.327 0 002.486 2.542 2.707 2.707 0 00.851-.1v-1.784h-1.245v-1.111h2.824z"/><path data-name="パス 452" d="M37.658 107.193h1.658v7.3h-1.658z"/><path data-name="パス 453" d="M47.716 114.493h-1.659l-1.846-3.018a23.007 23.007 0 01-1.321-2.447h-.044c.066.9.1 1.927.1 3.224v2.241h-1.5v-7.3h1.793l1.812 2.959a21.6 21.6 0 011.288 2.381h.024a28.782 28.782 0 01-.147-3.15v-2.19h1.5z"/><path data-name="パス 454" d="M54.674 108.065l-3.7 5.2v.036h3.9v1.192h-6.036v-.788l3.774-5.291v-.04h-3.438v-1.181h5.5z"/><path data-name="パス 455" d="M61.306 114.493H59.57l-.618-1.927h-2.306l-.593 1.927h-1.679l2.44-7.3h2.084zm-2.583-3l-.516-1.657c-.134-.458-.28-1.046-.392-1.492h-.034c-.111.456-.256 1.053-.379 1.482l-.515 1.667z"/></g></g><g data-name="グループ 349"><g data-name="グループ 348" fill="#fff"><path data-name="パス 456" d="M62.795 156.12a2.806 2.806 0 00-1.163-.243c-.665 0-.96.308-.96.622 0 .4.323.585 1.12.9 1.048.406 1.515.923 1.515 1.662 0 .98-.86 1.7-2.381 1.7a3.963 3.963 0 01-1.6-.313l.246-.909a3.275 3.275 0 001.408.314c.7 0 1.065-.283 1.065-.7 0-.4-.314-.642-1.039-.913-.984-.365-1.6-.892-1.6-1.624 0-.921.84-1.63 2.25-1.63a3.628 3.628 0 011.4.256z"/><path data-name="パス 457" d="M64.434 155.059h1.256v5.624h-1.256z"/><path data-name="パス 458" d="M72.065 160.683h-1.257l-1.4-2.325a18.827 18.827 0 01-1.006-1.885h-.033c.052.693.077 1.482.077 2.482v1.728h-1.142v-5.624h1.363l1.376 2.282a16.925 16.925 0 01.978 1.836h.016a23.373 23.373 0 01-.111-2.429v-1.689h1.14z"/><path data-name="パス 459" d="M77.689 160.543a4.191 4.191 0 01-1.443.213 2.72 2.72 0 01-3.051-2.815 2.91 2.91 0 013.2-2.962 3.55 3.55 0 011.352.211l-.247.875a2.981 2.981 0 00-1.045-.18 1.823 1.823 0 00-1.947 1.994 1.782 1.782 0 001.939 1.957 3.409 3.409 0 001.061-.161z"/><path data-name="パス 460" d="M82.431 160.683h-3.654v-5.624h3.518v.908h-2.26v1.359h2.133v.887h-2.133v1.563h2.4z"/><path data-name="パス 461" d="M88.2 160.683v-4.563h-.018l-1.106.5-.272-.774 1.564-.687h1.055v5.529z"/><path data-name="パス 462" d="M93.723 158.277a1.811 1.811 0 01-2.982-1.251 2.011 2.011 0 012.141-1.96 2.083 2.083 0 012.125 2.332c0 1.917-1.156 3.46-3.738 3.358v-.849a3.816 3.816 0 00.62-.022 1.97 1.97 0 001.858-1.6zm-1.735-1.347c0 .651.358 1.047.869 1.047a.964.964 0 00.809-.416.776.776 0 00.065-.4c0-.739-.288-1.324-.89-1.324-.518-.003-.855.464-.855 1.093z"/><path data-name="パス 463" d="M95.938 157.933c0-1.682.721-2.867 2.168-2.867 1.511 0 2.1 1.285 2.1 2.825 0 1.826-.79 2.871-2.141 2.871-1.496 0-2.127-1.286-2.127-2.829zm2.145 1.974c.574 0 .863-.7.863-2 0-1.249-.263-1.989-.857-1.989-.544 0-.891.673-.891 1.989s.313 2 .873 2z"/><path data-name="パス 464" d="M102.438 160.683v-4.563h-.015l-1.106.5-.27-.774 1.562-.687h1.055v5.529z"/><path data-name="パス 465" d="M114.223 160.462a6.588 6.588 0 01-1.86.281 3.418 3.418 0 01-2.3-.688 2.744 2.744 0 01-.885-2.137c0-1.9 1.471-2.92 3.348-2.92a4.31 4.31 0 011.529.237l-.262.889a3.334 3.334 0 00-1.25-.2 1.843 1.843 0 00-2.047 1.976 1.778 1.778 0 001.884 1.957 2 2 0 00.646-.079v-1.376h-.943v-.855h2.142z"/><path data-name="パス 466" d="M115.687 155.059h1.254v5.624h-1.254z"/><path data-name="パス 467" d="M123.316 160.683h-1.256l-1.4-2.325a18.05 18.05 0 01-1.005-1.885h-.034c.053.693.077 1.482.077 2.482v1.728h-1.139v-5.624h1.357l1.378 2.282a16.756 16.756 0 01.978 1.836h.017a23.149 23.149 0 01-.109-2.429v-1.689h1.137z"/><path data-name="パス 468" d="M128.592 155.732l-2.8 4.008v.028h2.828v.915h-4.451v-.607l2.862-4.08v-.029h-2.608v-.908h4.173z"/><path data-name="パス 469" d="M134.3 160.683h-1.314l-.469-1.487h-1.751l-.448 1.487h-1.275l1.854-5.624h1.581zm-1.959-2.3l-.392-1.279c-.1-.351-.213-.8-.3-1.147h-.026c-.083.349-.2.81-.288 1.14l-.392 1.286z"/></g></g><path data-name="パス 470" d="M49.1 69.374q-.258 0-.495-.009c-13.82-.5-20.5-7.769-21-14.756a19.93 19.93 0 016.547-16.349 32.416 32.416 0 0111.523-6.709c-1.679-6.83.988-12.908 3.64-16.915A35.122 35.122 0 0163.779 2.357a32.247 32.247 0 0123.288-.356c4.782 1.877 8.2 4.926 9.875 8.818.958 2.218 1.726 7.444-.739 10.051a.471.471 0 11-.685-.647c2.138-2.26 1.4-7.074.559-9.031-1.577-3.656-4.811-6.531-9.354-8.315a31.259 31.259 0 00-22.563.342c-9.5 4.2-20.436 16.056-17.586 28.031a37.316 37.316 0 0115.943-1.609c6.566.863 12.988 3.942 18.826 7.431a67.04 67.04 0 0011.123-8.036c4.352-4.027 26.883-24.161 43.071-25.034 7.554-.407 14.633 1.291 19.934 4.791 6 3.96 9.609 10.086 10.445 17.715.725 6.616-1.839 13.921-7.034 20.043a34.188 34.188 0 01-23.984 12.175c-7.435.406-19.449-.238-37.861-10.479-2.2-1.222-4.775-2.949-7.5-4.777-2.551-1.71-5.308-3.557-8.21-5.311-5.009 2.878-10.144 5.06-13.7 5.384-11.237 1.015-18.869-2.691-21.5-10.446q-.111-.326-.207-.649a30.749 30.749 0 00-11.122 6.5 19.02 19.02 0 00-6.253 15.6c.464 6.567 6.857 13.406 20.091 13.882 4.371.15 14.818-2.149 15.162-7.341a.468.468 0 01.5-.439.473.473 0 01.44.5c-.22 3.307-3.636 5.32-6.463 6.426a27.225 27.225 0 01-9.175 1.798zm33.151-31.756c2.757 1.683 5.376 3.439 7.809 5.069 2.712 1.818 5.274 3.534 7.437 4.737 18.2 10.122 30.03 10.762 37.352 10.361a33.243 33.243 0 0023.316-11.843c5.029-5.926 7.513-12.971 6.816-19.332-1.169-10.669-9.573-22.75-29.392-21.667-15.864.855-38.171 20.8-42.481 24.785a67.144 67.144 0 01-10.857 7.89zm-35.434-5.466c.064.215.131.428.2.642 2.477 7.3 9.763 10.789 20.521 9.811 3.337-.3 8.128-2.312 12.866-4.994-5.631-3.324-11.777-6.216-18.012-7.036a37.544 37.544 0 00-15.575 1.577z" fill="#fff"/><path data-name="パス 471" d="M87.392 103.431c-3.025 0-5.71-1.845-8.005-5.507a16.6 16.6 0 01-2.052-9.8c-4-1.139-7.095-3.183-8.537-5.716q-.209-.368-.4-.736c-5.005-.872-11.02-2.321-14.179-5.239-5.41-4.993-6.692-11.579-3.267-16.781 2.051-3.108 9.847-6.745 18.577-1.078a11.594 11.594 0 012.707 2.44 31.877 31.877 0 016.375-5.1 25.333 25.333 0 01-2.92-3.069 46.346 46.346 0 01-23 .272c-15.542-3.634-19.944-15.178-19.112-22.05a16.058 16.058 0 017.1-11.38c6.007-4.108 14.589-5.024 24.169-2.575 4.017 1.025 9.921 4.275 16.014 8.068a15.506 15.506 0 012.635-.338c5.563-.252 11.578 2.3 17.407 5.317 11.6-9.162 22.9-16.84 33.6-17.717 9.552-.775 15.04 2.268 17.962 4.96a15.175 15.175 0 015 11.072c0 12.477-12.823 20.962-22.013 21.552-14.081.915-23.044-4-30.25-7.953l-1.221-.667c-.892-.485-2.079-1.221-3.483-2.131l-.553.414-.148.111c-5.474 4.1-13.135 9.848-23.111 12.767a24.271 24.271 0 002.782 2.84 30.345 30.345 0 0112.113-4.075 10.688 10.688 0 018.147 2.48 4.674 4.674 0 011.648 3.442 4.259 4.259 0 01-1.656 3.117 9.183 9.183 0 01-6.9 1.853 26.316 26.316 0 01-13.464-5.673 30.742 30.742 0 00-6.552 5.228 13.178 13.178 0 012.278 7.3c-.014 2.257-.705 3.984-1.9 4.736a.472.472 0 11-.5-.8c.887-.561 1.446-2.072 1.457-3.945a12.2 12.2 0 00-1.985-6.575 22.116 22.116 0 00-2.874 4.151 15.119 15.119 0 00-.252 14.178c1.272.215 2.471.394 3.524.552 1.521.226 2.721.405 3.513.593q1.121.266 2.128.536a31.651 31.651 0 014.091-9.977c4.041-5.6 10.969-9.562 16.847-9.633 3.013-.023 5.4.962 6.859 2.889 3.8 5.006-.449 12.622-6.347 17.951a20.955 20.955 0 01-9.518 4.765 14.633 14.633 0 011.261 1.809 10.922 10.922 0 011.146 9.646 4.941 4.941 0 01-2.972 3.175 8.308 8.308 0 01-2.169.301zm-9.157-15.07a15.569 15.569 0 001.951 9.063c2.62 4.182 5.605 5.749 9.127 4.8a4.106 4.106 0 002.342-2.613 9.976 9.976 0 00-1.07-8.8 12.136 12.136 0 00-1.536-2.088 26.6 26.6 0 01-8.831.043q-1.02-.173-1.983-.405zm.065-.957c.668.169 1.359.312 2.068.425a25.771 25.771 0 007.816.074c-1.623-1.359-4.321-2.819-9.319-4.236a30.62 30.62 0 00-.565 3.737zm.773-4.657c5.808 1.643 8.659 3.37 10.3 4.951a20.182 20.182 0 009.636-4.662c7.742-6.994 8.707-13.418 6.229-16.682-1.275-1.679-3.375-2.542-6.1-2.517-5.6.068-12.216 3.868-16.094 9.242a30.776 30.776 0 00-3.971 9.668zm-9.5-.877l.041.072c1.279 2.246 4.145 4.133 7.791 5.217a32.17 32.17 0 01.577-3.735q-1.009-.27-2.138-.538c-.752-.179-1.995-.364-3.433-.579-.86-.129-1.818-.272-2.835-.437zm-9.406-25.337c-4.14 0-7.284 1.9-8.431 3.637-3.837 5.827-.718 12.03 3.119 15.57 2.848 2.632 8.3 4.026 13.039 4.886a15.971 15.971 0 01.55-14.419 22.954 22.954 0 013.145-4.492 10.655 10.655 0 00-2.576-2.35 16.181 16.181 0 00-8.843-2.832zm20.059-.493a25.451 25.451 0 0012.716 5.247 8.193 8.193 0 006.16-1.637 3.408 3.408 0 001.325-2.423 3.758 3.758 0 00-1.353-2.733 9.888 9.888 0 00-7.423-2.226 29.2 29.2 0 00-11.422 3.772zM54.768 16.705a23.744 23.744 0 00-13.556 3.756 15.125 15.125 0 00-6.7 10.716c-.792 6.536 3.452 17.527 18.391 21.02a45.575 45.575 0 0022.2-.107 24.118 24.118 0 01-.247-.338 25.311 25.311 0 01-2.219-3.724 36.888 36.888 0 01-17.256.4c-6.43-1.421-15.281-7.681-14.826-17.149a9.5 9.5 0 013.2-6.152 8.973 8.973 0 016.906-2.033c2.439.233 5.847 1.77 5.9 4.052a.471.471 0 01-.459.482.477.477 0 01-.483-.46c-.037-1.523-2.7-2.912-5.05-3.136a7.944 7.944 0 00-6.2 1.808 8.618 8.618 0 00-2.878 5.484c-.258 5.37 3.942 13.942 14.089 16.185a35.931 35.931 0 0016.648-.356 19.536 19.536 0 01-1.7-11.123 13.621 13.621 0 019.076-10.519c-5.753-3.549-11.249-6.533-15-7.49a39.956 39.956 0 00-9.833-1.316zm18.8 31.076a24.446 24.446 0 002.058 3.421c.148.205.3.412.463.622 9.8-2.78 17.35-8.441 23.137-12.78l.148-.111q.14-.1.279-.21c-1.3-.856-2.763-1.836-4.32-2.886-4.339 3.469-12.077 9.238-21.764 11.944zm27.733-9.108c1.254.808 2.318 1.463 3.126 1.9l1.224.67c7.1 3.891 15.937 8.734 29.735 7.839 13.09-.841 21.13-12.573 21.131-20.613a14.228 14.228 0 00-4.692-10.379c-2.784-2.565-8.038-5.467-17.247-4.714-10.351.848-21.39 8.3-32.757 17.257q1.017.534 2.023 1.082c.959.519 2.07 1.07 3.3 1.629 8.05-5.532 18.011-11.526 24.854-12.718 5.557-.974 15.393-.723 17 6.373a8.738 8.738 0 01-1.832 6.926c-1.652 2.219-5.784 6.03-14.9 6.636-7.122.473-17.829-2.926-25.018-6.136a237.762 237.762 0 00-5.946 4.248zm-20.61-12.494a12.427 12.427 0 00-9.224 10.03 18.616 18.616 0 001.692 10.7c9.423-2.592 17.007-8.169 21.356-11.627l-.492-.333c-4.051-2.733-8.743-5.901-13.331-8.77zm27.47 7.623c7.063 3.094 17.245 6.267 24.043 5.822 8.736-.582 12.649-4.171 14.2-6.259a7.8 7.8 0 001.669-6.155c-1.819-8.023-15.346-5.755-15.921-5.654-6.576 1.146-16.41 7.084-23.99 12.246zm-12.059 1.417a370.11 370.11 0 004.356 2.905 231.055 231.055 0 015.783-4.157 53.447 53.447 0 01-2.846-1.422c-.781-.423-1.577-.849-2.384-1.271q-2.022 1.6-4.058 3.256l-.34.275zm-14.057-9.3c4.329 2.732 8.7 5.683 12.505 8.254l.735.5.734-.594.341-.275q1.872-1.516 3.733-3c-5.462-2.8-11.352-5.243-16.552-5.021q-.774.032-1.495.135z" fill="#fff"/><path data-name="パス 472" d="M103.053 115.8a3.671 3.671 0 01-.475-.028 8.247 8.247 0 01-6.3-5.041 7.1 7.1 0 01-2.923.762 4.119 4.119 0 01-3.489-1.832c-2.046-2.683-2.394-7.364-.886-11.924 1.22-3.7 4.687-8.139 10.853-11.706l-.282-1.54c-1.022-5.568-1.761-9.592-1.29-13.443.582-4.766 2.635-8.44 5.938-10.626a12.952 12.952 0 0110.124-1.79c2.626.75 10.994 4.109 8.39 15.813a16.7 16.7 0 01-2.219 5.111c11.355-2.807 31.614-10.57 31.147-30.108-.072-3.161-4.764-15.937-17.253-17.1-5.082-.466-16.617 2.184-20.268 10.435-1.255 2.822-2.619 7.945.219 9.248a.471.471 0 01-.394.856c-4.316-1.982-1.071-9.621-.687-10.486 2.206-4.985 6.826-7.684 10.313-9.07a26.257 26.257 0 0110.9-1.921c13.107 1.223 18.032 14.687 18.108 18.018.5 20.8-21.509 28.635-32.862 31.284-2.145 3.006-5.757 6.579-11.82 9.823a34.6 34.6 0 00-5.808 3.827 30.67 30.67 0 01-.578 7.729c-.378 2.033-1.477 6.087-4.42 8.148 1.027 2.167 2.783 4.228 5.6 4.6a3.662 3.662 0 002.554-.664 1.105 1.105 0 00.386-.9.47.47 0 01.452-.489.462.462 0 01.489.452 2.044 2.044 0 01-.692 1.633 4.426 4.426 0 01-2.827.929zm-3.041-28.792c-5.753 3.4-8.99 7.555-10.135 11.024-1.717 5.193-.674 9.2.74 11.058a3.217 3.217 0 002.693 1.462 6.094 6.094 0 002.588-.7 12.678 12.678 0 01-.976-4.829c.3-4.083 2.382-7.791 6.2-11.076a40.02 40.02 0 00-.578-3.964c-.067-.37-.135-.743-.2-1.124l-.332-1.851zm1.176 8.143c-3.271 2.993-5.056 6.321-5.326 9.947a11.569 11.569 0 00.852 4.242c2.552-1.91 3.533-5.575 3.876-7.423a30.967 30.967 0 00.598-6.766zm-.308-8.639q.19 1.058.388 2.191c.065.379.132.75.2 1.117.2 1.117.4 2.211.53 3.407a36.637 36.637 0 015.462-3.525 33.725 33.725 0 0010.858-8.677c-1 .215-1.9.384-2.643.515a47.3 47.3 0 00-14.795 4.972zm10.577-27.311a12.376 12.376 0 00-6.736 2.006c-3.066 2.029-4.975 5.472-5.523 9.955-.453 3.709.275 7.673 1.282 13.159l.224 1.223a48.425 48.425 0 0114.808-4.932 74.148 74.148 0 003.655-.739 16.521 16.521 0 002.628-5.632c.613-2.756 1.868-11.961-7.729-14.7a9.567 9.567 0 00-2.609-.34z" fill="#fff"/><path data-name="パス 473" d="M108.208 110.578a4.7 4.7 0 114.657-4.693 4.678 4.678 0 01-4.657 4.693zm0-8.691a4 4 0 103.958 4 3.98 3.98 0 00-3.958-4z" fill="#fff"/><path data-name="パス 474" d="M108.206 108.893a3.005 3.005 0 112.691-4.3l-.632.3a2.31 2.31 0 10.132 1.642l.672.194a3 3 0 01-2.863 2.164z" fill="#fff"/></g></svg>